<svg width="171" height="23" viewBox="0 0 171 23" fill="none" xmlns="http://www.w3.org/2000/svg">
<path d="M9.39 22.36C7.71 22.36 6.1 22.14 4.56 21.7C3.02 21.24 1.78 20.65 0.84 19.93L2.49 16.27C3.39 16.91 4.45 17.44 5.67 17.86C6.91 18.26 8.16 18.46 9.42 18.46C10.38 18.46 11.15 18.37 11.73 18.19C12.33 17.99 12.77 17.72 13.05 17.38C13.33 17.04 13.47 16.65 13.47 16.21C13.47 15.65 13.25 15.21 12.81 14.89C12.37 14.55 11.79 14.28 11.07 14.08C10.35 13.86 9.55 13.66 8.67 13.48C7.81 13.28 6.94 13.04 6.06 12.76C5.2 12.48 4.41 12.12 3.69 11.68C2.97 11.24 2.38 10.66 1.92 9.94C1.48 9.22 1.26 8.3 1.26 7.18C1.26 5.98 1.58 4.89 2.22 3.91C2.88 2.91 3.86 2.12 5.16 1.54C6.48 0.939999 8.13 0.64 10.11 0.64C11.43 0.64 12.73 0.799999 14.01 1.12C15.29 1.42 16.42 1.88 17.4 2.5L15.9 6.19C14.92 5.63 13.94 5.22 12.96 4.96C11.98 4.68 11.02 4.54 10.08 4.54C9.14 4.54 8.37 4.65 7.77 4.87C7.17 5.09 6.74 5.38 6.48 5.74C6.22 6.08 6.09 6.48 6.09 6.94C6.09 7.48 6.31 7.92 6.75 8.26C7.19 8.58 7.77 8.84 8.49 9.04C9.21 9.24 10 9.44 10.86 9.64C11.74 9.84 12.61 10.07 13.47 10.33C14.35 10.59 15.15 10.94 15.87 11.38C16.59 11.82 17.17 12.4 17.61 13.12C18.07 13.84 18.3 14.75 18.3 15.85C18.3 17.03 17.97 18.11 17.31 19.09C16.65 20.07 15.66 20.86 14.34 21.46C13.04 22.06 11.39 22.36 9.39 22.36ZM26.0909 9.46H36.2009V13.24H26.0909V9.46ZM26.4509 18.1H37.8809V22H21.6209V0.999999H37.4909V4.9H26.4509V18.1ZM47.7548 22L38.6948 0.999999H43.9448L51.8648 19.6H48.7748L56.8148 0.999999H61.6448L52.5548 22H47.7548ZM67.8682 9.46H77.9782V13.24H67.8682V9.46ZM68.2282 18.1H79.6582V22H63.3982V0.999999H79.2682V4.9H68.2282V18.1ZM83.5252 22V0.999999H92.6152C94.4952 0.999999 96.1152 1.31 97.4752 1.93C98.8352 2.53 99.8852 3.4 100.625 4.54C101.365 5.68 101.735 7.04 101.735 8.62C101.735 10.18 101.365 11.53 100.625 12.67C99.8852 13.79 98.8352 14.65 97.4752 15.25C96.1152 15.85 94.4952 16.15 92.6152 16.15H86.2252L88.3852 14.02V22H83.5252ZM96.8752 22L91.6252 14.38H96.8152L102.125 22H96.8752ZM88.3852 14.56L86.2252 12.28H92.3452C93.8452 12.28 94.9652 11.96 95.7052 11.32C96.4452 10.66 96.8152 9.76 96.8152 8.62C96.8152 7.46 96.4452 6.56 95.7052 5.92C94.9652 5.28 93.8452 4.96 92.3452 4.96H86.2252L88.3852 2.65V14.56Z" fill="black"/>
<path d="M105.586 22V0.999999H115.846C118.486 0.999999 120.466 1.5 121.786 2.5C123.126 3.5 123.796 4.82 123.796 6.46C123.796 7.56 123.526 8.52 122.986 9.34C122.446 10.14 121.706 10.76 120.766 11.2C119.826 11.64 118.746 11.86 117.526 11.86L118.096 10.63C119.416 10.63 120.586 10.85 121.606 11.29C122.626 11.71 123.416 12.34 123.976 13.18C124.556 14.02 124.846 15.05 124.846 16.27C124.846 18.07 124.136 19.48 122.716 20.5C121.296 21.5 119.206 22 116.446 22H105.586ZM110.416 18.34H116.086C117.346 18.34 118.296 18.14 118.936 17.74C119.596 17.32 119.926 16.66 119.926 15.76C119.926 14.88 119.596 14.23 118.936 13.81C118.296 13.37 117.346 13.15 116.086 13.15H110.056V9.61H115.246C116.426 9.61 117.326 9.41 117.946 9.01C118.586 8.59 118.906 7.96 118.906 7.12C118.906 6.3 118.586 5.69 117.946 5.29C117.326 4.87 116.426 4.66 115.246 4.66H110.416V18.34ZM137.855 22.36C134.875 22.36 132.545 21.53 130.865 19.87C129.185 18.21 128.345 15.84 128.345 12.76V0.999999H133.205V12.58C133.205 14.58 133.615 16.02 134.435 16.9C135.255 17.78 136.405 18.22 137.885 18.22C139.365 18.22 140.515 17.78 141.335 16.9C142.155 16.02 142.565 14.58 142.565 12.58V0.999999H147.365V12.76C147.365 15.84 146.525 18.21 144.845 19.87C143.165 21.53 140.835 22.36 137.855 22.36ZM152.168 22V0.999999H161.258C163.138 0.999999 164.758 1.31 166.118 1.93C167.478 2.53 168.528 3.4 169.268 4.54C170.008 5.68 170.378 7.04 170.378 8.62C170.378 10.18 170.008 11.53 169.268 12.67C168.528 13.79 167.478 14.65 166.118 15.25C164.758 15.85 163.138 16.15 161.258 16.15H154.868L157.028 14.02V22H152.168ZM165.518 22L160.268 14.38H165.458L170.768 22H165.518ZM157.028 14.56L154.868 12.28H160.988C162.488 12.28 163.608 11.96 164.348 11.32C165.088 10.66 165.458 9.76 165.458 8.62C165.458 7.46 165.088 6.56 164.348 5.92C163.608 5.28 162.488 4.96 160.988 4.96H154.868L157.028 2.65V14.56Z" fill="#00ADEF"/>
</svg>
